<svg xmlns="http://www.w3.org/2000/svg" version="1.1" xmlns:xlink="http://www.w3.org/1999/xlink" xmlns:svgjs="http://svgjs.com/svgjs" width="512" height="512" x="0" y="0" viewBox="0 0 62.414 62.164" style="enable-background:new 0 0 512 512" xml:space="preserve" class=""><g><path d="M15 52.164c-1.654 0-3 1.346-3 3s1.346 3 3 3 3-1.346 3-3-1.346-3-3-3zm0 4a1.001 1.001 0 0 1 0-2 1.001 1.001 0 0 1 0 2zM34 48.164h4v2h-4z" fill="#0c53af" data-original="#000000" class=""></path><path d="M62.414 47.164 56 40.75v3.414H42v-4.058a12.976 12.976 0 0 0 7 2.058c7.168 0 13-5.832 13-13 0-6.897-5.403-12.541-12.197-12.959A2.98 2.98 0 0 0 50 15.164c0-4.963-4.038-9-9-9H14.468L9.331 0 4.735 1.531 8 11.326v2.838H3c-1.654 0-3 1.346-3 3s1.346 3 3 3h8c.551 0 1 .448 1 1v27.685c-2.361 1.126-4 3.53-4 6.315 0 3.859 3.14 7 7 7 2.785 0 5.189-1.639 6.315-4H42c1.103 0 2-.897 2-2v-2c0-1.103-.897-2-2-2v-2h14v3.414zM28 36.164v2h-2v-4h6v4h-2v-2zm-10-4v-11a6.955 6.955 0 0 0-.685-3H26v10c0 1.103.897 2 2 2h1.333c.81 0 1.534-.482 1.846-1.23l4.487-10.77h6.437c-3.659 2.303-6.104 6.367-6.104 11 0 1.018.126 2.021.357 3zm10-4v-12h5.333a.667.667 0 0 1 .616.923l-4.615 11.077zm17.889-18a7.013 7.013 0 0 1 1.425 2h-5.143a3.006 3.006 0 0 1 2.829-2zm14.111 19c0 1.041-.155 2.045-.426 3h-3.818c.152-.927.244-1.921.244-3s-.092-2.073-.244-3h3.818c.271.955.426 1.959.426 3zm-6 0c0 1.094-.106 2.087-.277 3H44.28a16.03 16.03 0 0 1-.28-3c0-1.094.106-2.087.277-3h9.443c.173.914.28 1.907.28 3zm-4.997 10.809c-.936-.671-3.033-2.478-4.194-5.808h8.393c-1.156 3.349-3.254 5.14-4.199 5.808zm-4.205-15.809c1.156-3.348 3.252-5.139 4.199-5.808.936.671 3.033 2.478 4.194 5.808zm-2.093 0h-3.491a11.046 11.046 0 0 1 6.493-5.496c-1.109 1.256-2.278 3.061-3.002 5.496zm-4.284 8a11 11 0 0 1-.421-3c0-1.041.155-2.045.426-3h3.818c-.152.927-.244 1.921-.244 3s.092 2.073.244 3zm3.579 2h.705c.721 2.427 1.885 4.227 2.991 5.482a10.971 10.971 0 0 1-3.697-2.01v-3.472zm10.292 5.496c1.11-1.256 2.279-3.061 3.002-5.496h3.491a11.044 11.044 0 0 1-6.493 5.496zm6.494-15.496h-3.491c-.723-2.435-1.893-4.24-3.002-5.496a11.053 11.053 0 0 1 6.493 5.496zM7.265 2.797l1.404-.469 4.214 5.057a4.105 4.105 0 0 1-3.182 2.719zM10 12.08a6.094 6.094 0 0 0 4.722-3.916H41c.763 0 1.496.127 2.184.354C41.325 9.247 40 11.049 40 13.164v1h7.92c.047.328.08.66.08 1 0 .552-.449 1-1 1H35.905a2.664 2.664 0 0 0-2.572-2H28c-1.103 0-2 .897-2 2H15.889a6.975 6.975 0 0 0-4.889-2h-1zm-8 5.084c0-.552.449-1 1-1h5v2H3c-.551 0-1-.448-1-1zm9 1h-1v-2h1c2.757 0 5 2.243 5 5v27.08c-.328-.047-.66-.08-1-.08s-.672.033-1 .08v-27.08c0-1.654-1.346-3-3-3zm4 42c-2.757 0-5-2.243-5-5s2.243-5 5-5 5 2.243 5 5-2.243 5-5 5zm27-4H21.92c.047-.328.08-.66.08-1s-.033-.672-.08-1H42zm-20.685-4A7.035 7.035 0 0 0 18 48.849V34.164h6v6h10v-6h6v18zm20.685-4v-2h16v-.586l1.586 1.586L58 48.75v-.586z" fill="#0c53af" data-original="#000000" class=""></path><path d="M28 10.164h2v2h-2zM24 10.164h2v2h-2zM20 10.164h2v2h-2z" fill="#0c53af" data-original="#000000" class=""></path></g></svg>