<svg xmlns="http://www.w3.org/2000/svg" version="1.1" xmlns:xlink="http://www.w3.org/1999/xlink" xmlns:svgjs="http://svgjs.com/svgjs" width="512" height="512" x="0" y="0" viewBox="0 0 682.667 682.667" style="enable-background:new 0 0 512 512" xml:space="preserve" class=""><g><defs><clipPath id="a" clipPathUnits="userSpaceOnUse"><path d="M0 512h512V0H0Z" fill="#0c53af" data-original="#000000" class=""></path></clipPath></defs><g clip-path="url(#a)" transform="matrix(1.33333 0 0 -1.33333 0 682.667)"><path d="M0 0v-137.223c0-16.809-13.626-30.435-30.435-30.435h-220.647c-16.809 0-30.435 13.626-30.435 30.435v436.787c0 16.809 13.626 30.435 30.435 30.435h220.647C-13.626 329.999 0 316.373 0 299.564v-46.618" style="stroke-width:15;stroke-linecap:round;stroke-linejoin:round;stroke-miterlimit:10;stroke-dasharray:none;stroke-opacity:1" transform="translate(348.249 174.83)" fill="none" stroke="#0c53af" stroke-width="15" stroke-linecap="round" stroke-linejoin="round" stroke-miterlimit="10" stroke-dasharray="none" stroke-opacity="" data-original="#000000" class=""></path><path d="M0 0v30.443c0 6.534-5.297 11.83-11.831 11.83h-23.165a11.83 11.83 0 0 1-10.195-5.828l-8.103-13.766a11.83 11.83 0 0 0-10.195-5.829h-84.632a11.83 11.83 0 0 0-10.195 5.829l-8.103 13.766a11.83 11.83 0 0 1-10.195 5.828h-23.165c-6.534 0-11.831-5.296-11.831-11.83v-248.095" style="stroke-width:15;stroke-linecap:round;stroke-linejoin:round;stroke-miterlimit:10;stroke-dasharray:none;stroke-opacity:1" transform="translate(313.295 432.213)" fill="none" stroke="#0c53af" stroke-width="15" stroke-linecap="round" stroke-linejoin="round" stroke-miterlimit="10" stroke-dasharray="none" stroke-opacity="" data-original="#000000" class=""></path><path d="M0 0v-130.23c0-6.534 5.297-11.831 11.831-11.831h187.948c6.534 0 11.831 5.297 11.831 11.831V-8.886" style="stroke-width:15;stroke-linecap:round;stroke-linejoin:round;stroke-miterlimit:10;stroke-dasharray:none;stroke-opacity:1" transform="translate(101.686 179.574)" fill="none" stroke="#0c53af" stroke-width="15" stroke-linecap="round" stroke-linejoin="round" stroke-miterlimit="10" stroke-dasharray="none" stroke-opacity="" data-original="#000000" class=""></path><path d="M0 0h47.965" style="stroke-width:15;stroke-linecap:round;stroke-linejoin:round;stroke-miterlimit:10;stroke-dasharray:none;stroke-opacity:1" transform="translate(183.508 474.487)" fill="none" stroke="#0c53af" stroke-width="15" stroke-linecap="round" stroke-linejoin="round" stroke-miterlimit="10" stroke-dasharray="none" stroke-opacity="" data-original="#000000" class=""></path><path d="M0 0c-21.922 16.507-49.197 26.285-78.756 26.268-71.515-.044-130.212-58.243-130.835-129.755-.202-23.203 5.638-45.022 16.033-63.99a12.916 12.916 0 0 0 1.565-6.916l-1.952-36.033c-.429-7.905 5.869-14.547 13.785-14.541l47.099.034c1.726.002 3.427-.357 5.025-1.008 16.131-6.572 33.864-10.026 52.454-9.597 70.689 1.634 127.532 59.621 127.825 130.329.127 30.486-10.167 58.563-27.524 80.875" style="stroke-width:15;stroke-linecap:round;stroke-linejoin:round;stroke-miterlimit:10;stroke-dasharray:none;stroke-opacity:1" transform="translate(393.023 405.946)" fill="none" stroke="#0c53af" stroke-width="15" stroke-linecap="round" stroke-linejoin="round" stroke-miterlimit="10" stroke-dasharray="none" stroke-opacity="" data-original="#000000" class=""></path><path d="M0 0h139.079" style="stroke-width:15;stroke-linecap:round;stroke-linejoin:round;stroke-miterlimit:10;stroke-dasharray:none;stroke-opacity:1" transform="translate(137.951 141.932)" fill="none" stroke="#0c53af" stroke-width="15" stroke-linecap="round" stroke-linejoin="round" stroke-miterlimit="10" stroke-dasharray="none" stroke-opacity="" data-original="#000000" class=""></path><path d="M0 0h139.079" style="stroke-width:15;stroke-linecap:round;stroke-linejoin:round;stroke-miterlimit:10;stroke-dasharray:none;stroke-opacity:1" transform="translate(137.951 110.86)" fill="none" stroke="#0c53af" stroke-width="15" stroke-linecap="round" stroke-linejoin="round" stroke-miterlimit="10" stroke-dasharray="none" stroke-opacity="" data-original="#000000" class=""></path><path d="M0 0h139.079" style="stroke-width:15;stroke-linecap:round;stroke-linejoin:round;stroke-miterlimit:10;stroke-dasharray:none;stroke-opacity:1" transform="translate(137.951 79.787)" fill="none" stroke="#0c53af" stroke-width="15" stroke-linecap="round" stroke-linejoin="round" stroke-miterlimit="10" stroke-dasharray="none" stroke-opacity="" data-original="#000000" class=""></path><path d="M0 0c-53.121-.514-96.807-43.26-98.414-96.359-.559-18.464 3.923-35.836 12.164-50.852a9.716 9.716 0 0 0 1.161-5.203l-1.833-33.831a4.353 4.353 0 0 1 4.351-4.589l42.246.031a10.11 10.11 0 0 0 3.817-.766c12.253-4.993 25.723-7.616 39.844-7.29 53.431 1.236 96.65 45.137 97.09 98.58C100.885-44.644 55.653.539 0 0Z" style="stroke-width:15;stroke-linecap:round;stroke-linejoin:round;stroke-miterlimit:10;stroke-dasharray:none;stroke-opacity:1" transform="translate(313.363 400.733)" fill="none" stroke="#0c53af" stroke-width="15" stroke-linecap="round" stroke-linejoin="round" stroke-miterlimit="10" stroke-dasharray="none" stroke-opacity="" data-original="#000000" class=""></path><path d="M0 0c-6.977 9.142-15.987 15.961-27.054 7.64-6.181-4.647-10.407-11.63-12.397-19.103-4.231-15.887-.382-32.248 8.021-46.079 10.352-17.04 27.092-31.996 45.268-40.181 20.018-9.015 38.866-5.425 53.998 10.482 6.395 6.722 8.868 17.728.059 23.762C60.64-58.51 49.59-50.805 41.033-57.38c-5.889-4.526-7.302-11.472-15.446-12.665C11.662-72.086-4.885-51.475-7.646-39.48c-.855 3.719-.083 7.073 1.94 10.248 2.121 3.327 4.896 4.331 7.529 6.73C8.082-16.8 5.66-7.417 0 0Z" style="stroke-width:15;stroke-linecap:round;stroke-linejoin:round;stroke-miterlimit:10;stroke-dasharray:none;stroke-opacity:1" transform="translate(298.135 346.88)" fill="none" stroke="#0c53af" stroke-width="15" stroke-linecap="round" stroke-linejoin="round" stroke-miterlimit="10" stroke-dasharray="none" stroke-opacity="" data-original="#000000" class=""></path></g></g></svg>