<svg xmlns="http://www.w3.org/2000/svg" version="1.1" xmlns:xlink="http://www.w3.org/1999/xlink" xmlns:svgjs="http://svgjs.com/svgjs" width="512" height="512" x="0" y="0" viewBox="0 0 512 512" style="enable-background:new 0 0 512 512" xml:space="preserve" class=""><g><path d="M36.773 66.188c-4.143 0-7.5 3.357-7.5 7.5s3.357 7.5 7.5 7.5h9.247c4.143 0 7.5-3.357 7.5-7.5s-3.357-7.5-7.5-7.5zM76.406 66.188c-4.143 0-7.5 3.357-7.5 7.5s3.357 7.5 7.5 7.5h9.248c4.143 0 7.5-3.357 7.5-7.5s-3.357-7.5-7.5-7.5zM116.039 81.188h9.248c4.143 0 7.5-3.357 7.5-7.5s-3.357-7.5-7.5-7.5h-9.248c-4.143 0-7.5 3.357-7.5 7.5s3.357 7.5 7.5 7.5zM345.055 292.335v-49.757h15.679a7.502 7.502 0 0 0 6.352-11.487l-23.179-36.924a7.5 7.5 0 0 0-6.353-3.513H173.122a7.498 7.498 0 0 0-6.454 3.68l-21.855 36.924a7.501 7.501 0 0 0 6.454 11.32h14.355v49.757c0 8.762 7.129 15.891 15.892 15.891h27.221c4.143 0 7.5-3.357 7.5-7.5s-3.357-7.5-7.5-7.5h-27.221a.893.893 0 0 1-.892-.891v-49.757h77.316a7.498 7.498 0 0 0 6.454-3.68l7.901-13.349v67.676h-34.56c-4.143 0-7.5 3.357-7.5 7.5s3.357 7.5 7.5 7.5h41.982l.077.001h49.37c8.764.001 15.893-7.128 15.893-15.891zm-11.648-86.68 13.763 21.924h-40.05l-13.763-21.924zm-79.745 21.924h-89.241l12.978-21.924h89.241zm75.502 65.648h-41.87v-69.018l9.326 14.857a7.5 7.5 0 0 0 6.353 3.513h27.082v49.757c0 .491-.4.891-.891.891z" fill="#0c53af" data-original="#000000" class=""></path><path d="M246.604 282.418c4.143 0 7.5-3.357 7.5-7.5s-3.357-7.5-7.5-7.5h-17.739c-4.143 0-7.5 3.357-7.5 7.5s3.357 7.5 7.5 7.5zM174.192 364.381v35.476c0 10.745 8.741 19.487 19.486 19.487h124.643c10.745 0 19.487-8.742 19.487-19.487v-35.476c0-10.745-8.742-19.487-19.487-19.487H193.679c-10.745 0-19.487 8.742-19.487 19.487zm148.617 0v35.476a4.492 4.492 0 0 1-4.487 4.487H193.679a4.491 4.491 0 0 1-4.486-4.487v-35.476a4.491 4.491 0 0 1 4.486-4.487h124.643a4.492 4.492 0 0 1 4.487 4.487zM108.583 237.05a7.497 7.497 0 0 0-10.484 1.604l-18.063 24.585a7.5 7.5 0 0 0 0 8.881l18.063 24.584a7.489 7.489 0 0 0 6.05 3.061 7.499 7.499 0 0 0 6.039-11.941L95.387 267.68l14.801-20.145a7.502 7.502 0 0 0-1.605-10.485zM431.966 263.239l-18.064-24.585a7.5 7.5 0 0 0-12.088 8.88l14.802 20.145-14.802 20.143a7.5 7.5 0 0 0 12.089 8.882l18.064-24.584a7.502 7.502 0 0 0-.001-8.881z" fill="#0c53af" data-original="#000000" class=""></path><path d="M485.315 33.207H124.111c-4.143 0-7.5 3.357-7.5 7.5s3.357 7.5 7.5 7.5h361.204c6.443 0 11.685 5.241 11.685 11.685V99.17H15V59.891c0-6.443 5.241-11.685 11.685-11.685h68.427c4.143 0 7.5-3.357 7.5-7.5s-3.357-7.5-7.5-7.5H26.685C11.971 33.207 0 45.177 0 59.891v392.218c0 14.714 11.971 26.685 26.685 26.685h368.521c4.143 0 7.5-3.357 7.5-7.5s-3.357-7.5-7.5-7.5H26.685c-6.443 0-11.685-5.241-11.685-11.685v-337.94h482v337.939c0 6.443-5.241 11.685-11.685 11.685h-61.11c-4.143 0-7.5 3.357-7.5 7.5s3.357 7.5 7.5 7.5h61.11c14.714 0 26.685-11.971 26.685-26.685V59.891c0-14.714-11.971-26.684-26.685-26.684z" fill="#0c53af" data-original="#000000" class=""></path></g></svg>