<svg xmlns="http://www.w3.org/2000/svg" width="217" height="230.594" viewBox="0 0 217 230.594">
  <g id="ico-funciona-1" transform="translate(-83 -1668)">
    <circle id="Ellipse_2" data-name="Ellipse 2" cx="108.5" cy="108.5" r="108.5" transform="translate(83 1668)" fill="#81ecec"/>
    <g id="Group_18" data-name="Group 18" transform="translate(117 1701.406)">
      <g id="Group_17" data-name="Group 17">
        <g id="Group_15" data-name="Group 15">
          <path id="Path_89" data-name="Path 89" d="M124.314,99.317,30.219,153.641c-2.1,1.211-3.811-.086-3.811-2.882V75.608c0-2.795,1.716-6.074,3.811-7.283L124.314,14c2.1-1.209,3.811.087,3.811,2.882V92.034C128.125,94.829,126.409,98.106,124.314,99.317Z" transform="translate(-26.408 -13.547)" fill="#c1aeb6"/>
          <path id="Path_90" data-name="Path 90" d="M27.134,87.168,32.126,90l-.416-5.748Z" transform="translate(-25.722 53.168)" fill="#c1aeb6"/>
          <path id="Path_91" data-name="Path 91" d="M84.023,16.571l-5.1-2.9L77.119,23.686Z" transform="translate(21.443 -13.428)" fill="#c1aeb6"/>
          <path id="Path_92" data-name="Path 92" d="M126.966,100.823,32.873,155.149c-2.1,1.209-3.811-.087-3.811-2.882V77.114c0-2.795,1.714-6.072,3.811-7.281l94.092-54.326c2.1-1.209,3.811.087,3.811,2.882V93.54C130.777,96.337,129.063,99.614,126.966,100.823Z" transform="translate(-23.904 -12.124)" fill="#eadce1"/>
          <path id="Path_93" data-name="Path 93" d="M125.882,90.1l-95.124,54.92V72.255l95.124-54.92Z" transform="translate(-22.304 -9.973)" fill="#232e3a"/>
          <path id="Path_94" data-name="Path 94" d="M66.873,70.425,54.762,77.416c-.628.363-1.141-.025-1.141-.861h0a2.736,2.736,0,0,1,1.141-2.177l12.111-6.993c.628-.363,1.141.025,1.141.861h0A2.743,2.743,0,0,1,66.873,70.425Z" transform="translate(-0.73 37.127)" fill="#232e3a"/>
          <path id="Path_95" data-name="Path 95" d="M120.839,20.153,32.459,71.158v65.82l88.38-51.005Z" transform="translate(-20.698 -7.314)" fill="#4dc5ac"/>
          <path id="Path_96" data-name="Path 96" d="M108.661,26.177,37.133,67.457v58.595L108.661,85.01Z" transform="translate(-16.288 -1.63)" fill="#fff"/>
          <path id="Path_97" data-name="Path 97" d="M55.617,47.3l-16.73,9.655V99.583l16.73-9.6Z" transform="translate(-14.633 18.302)" fill="#eadce1"/>
          <path id="Path_98" data-name="Path 98" d="M80.66,33.043,63.93,42.7v2.435l16.73-9.6Z" transform="translate(8.998 4.85)" fill="#eadce1"/>
          <path id="Path_99" data-name="Path 99" d="M80.66,35.721,63.93,45.377v2.435l16.73-9.6Z" transform="translate(8.998 7.377)" fill="#eadce1"/>
          <path id="Path_100" data-name="Path 100" d="M80.66,38.832,63.93,48.487v2.435l16.73-9.6Z" transform="translate(8.998 10.312)" fill="#eadce1"/>
          <path id="Path_101" data-name="Path 101" d="M80.66,41.942,63.93,51.6v2.435l16.73-9.6Z" transform="translate(8.998 13.246)" fill="#eadce1"/>
          <path id="Path_102" data-name="Path 102" d="M80.66,45.052,63.93,54.707v2.435l16.73-9.6Z" transform="translate(8.998 16.181)" fill="#eadce1"/>
          <path id="Path_103" data-name="Path 103" d="M108.661,26.177,37.133,67.457v7.912l71.529-41.041Z" transform="translate(-16.288 -1.63)" fill="#ff514d"/>
        </g>
        <g id="Group_16" data-name="Group 16" transform="translate(8.89 91.089)">
          <path id="Path_104" data-name="Path 104" d="M203.176,110.315,112.3,162.781c-2.426,1.4-6.7,1.224-9.5-.395L33.3,122.264c-2.8-1.617-3.108-4.087-.682-5.489L123.494,64.31c2.426-1.4,6.7-1.223,9.5.395l69.5,40.122C205.295,106.443,205.6,108.914,203.176,110.315Z" transform="translate(-30.982 -57.627)" fill="#c1aeb6"/>
          <rect id="Rectangle_9" data-name="Rectangle 9" width="6.239" height="6.239" transform="translate(0.013 55.462)" fill="#c1aeb6"/>
          <rect id="Rectangle_10" data-name="Rectangle 10" width="6.239" height="6.239" transform="translate(167.592 44.364)" fill="#c1aeb6"/>
          <path id="Path_105" data-name="Path 105" d="M203.176,107.363,112.3,159.829c-2.426,1.4-6.7,1.224-9.5-.395L33.3,119.312c-2.8-1.617-3.108-4.087-.682-5.489l90.875-52.466c2.426-1.4,6.7-1.223,9.5.395l69.5,40.122C205.295,103.491,205.6,105.962,203.176,107.363Z" transform="translate(-30.982 -60.413)" fill="#eadce1"/>
          <path id="Path_106" data-name="Path 106" d="M170.76,89.029l-90.059,52L35,114.642l90.059-52Z" transform="translate(-27.188 -58.306)" fill="#c1aeb6"/>
          <path id="Path_107" data-name="Path 107" d="M126,96.872l-31.867,18.4-17.049-9.843,31.867-18.4Z" transform="translate(12.518 -35.298)" fill="#c1aeb6"/>
          <path id="Path_108" data-name="Path 108" d="M37.03,91.106l6.286-3.629,4.521,2.61L41.55,93.716Z" transform="translate(-25.276 -34.875)" fill="#9b8790"/>
          <path id="Path_109" data-name="Path 109" d="M40.41,93.058,46.7,89.429l4.521,2.61-6.286,3.629Z" transform="translate(-22.085 -33.033)" fill="#9b8790"/>
          <path id="Path_110" data-name="Path 110" d="M43.791,95.626l8.485-4.9,4.521,2.61-8.485,4.9Z" transform="translate(-18.895 -31.808)" fill="#9b8790"/>
          <path id="Path_111" data-name="Path 111" d="M85.608,70.254l4.1-2.367,11.092,6.4-4.1,2.367Z" transform="translate(20.563 -53.36)" fill="#9b8790"/>
          <path id="Path_112" data-name="Path 112" d="M47.172,97.578l8.485-4.9,4.521,2.61-8.485,4.9Z" transform="translate(-15.705 -29.966)" fill="#9b8790"/>
          <path id="Path_113" data-name="Path 113" d="M50.553,100.3,61.771,93.82l4.52,2.61-11.218,6.477Z" transform="translate(-12.515 -28.89)" fill="#9b8790"/>
          <path id="Path_114" data-name="Path 114" d="M85.93,81.421l16.749-9.67,4.521,2.61L90.45,84.031Z" transform="translate(20.867 -49.714)" fill="#9b8790"/>
          <path id="Path_115" data-name="Path 115" d="M53.934,100.866l6.286-3.629,4.521,2.61-6.286,3.629Z" transform="translate(-9.325 -25.666)" fill="#9b8790"/>
          <path id="Path_116" data-name="Path 116" d="M41.074,88.771l6.286-3.629,4.521,2.61-6.286,3.629Z" transform="translate(-21.459 -37.078)" fill="#9b8790"/>
          <path id="Path_117" data-name="Path 117" d="M44.455,90.723l6.286-3.629,4.521,2.61-6.286,3.629Z" transform="translate(-18.269 -35.236)" fill="#9b8790"/>
          <path id="Path_118" data-name="Path 118" d="M45.16,86.412l6.286-3.629,4.521,2.61-6.286,3.629Z" transform="translate(-17.604 -39.304)" fill="#9b8790"/>
          <path id="Path_119" data-name="Path 119" d="M48.541,88.364l6.286-3.629,4.521,2.61-6.286,3.629Z" transform="translate(-14.414 -37.463)" fill="#9b8790"/>
          <path id="Path_120" data-name="Path 120" d="M49.2,84.077l6.286-3.629,4.521,2.61-6.286,3.629Z" transform="translate(-13.787 -41.508)" fill="#9b8790"/>
          <path id="Path_121" data-name="Path 121" d="M52.585,86.029,58.871,82.4l4.521,2.61-6.286,3.629Z" transform="translate(-10.597 -39.666)" fill="#9b8790"/>
          <path id="Path_122" data-name="Path 122" d="M53.279,81.725,59.565,78.1l4.521,2.61L57.8,84.334Z" transform="translate(-9.942 -43.728)" fill="#9b8790"/>
          <path id="Path_123" data-name="Path 123" d="M56.66,83.676l6.286-3.629,4.521,2.61-6.286,3.629Z" transform="translate(-6.752 -41.886)" fill="#9b8790"/>
          <path id="Path_124" data-name="Path 124" d="M57.323,79.39,63.61,75.76l4.52,2.61L61.844,82Z" transform="translate(-6.126 -45.931)" fill="#9b8790"/>
          <path id="Path_125" data-name="Path 125" d="M60.7,81.341l6.286-3.629,4.521,2.61-6.286,3.629Z" transform="translate(-2.936 -44.089)" fill="#9b8790"/>
          <path id="Path_126" data-name="Path 126" d="M61.409,77.031,67.7,73.4l4.521,2.61L65.93,79.64Z" transform="translate(-2.27 -48.157)" fill="#9b8790"/>
          <path id="Path_127" data-name="Path 127" d="M64.79,78.982l6.286-3.629,4.521,2.61-6.286,3.629Z" transform="translate(0.92 -46.315)" fill="#9b8790"/>
          <path id="Path_128" data-name="Path 128" d="M49.072,91.961l6.286-3.629,4.521,2.61-6.286,3.629Z" transform="translate(-13.912 -34.068)" fill="#9b8790"/>
          <path id="Path_129" data-name="Path 129" d="M52.452,93.913l6.286-3.629,4.52,2.61-6.286,3.629Z" transform="translate(-10.722 -32.226)" fill="#9b8790"/>
          <path id="Path_130" data-name="Path 130" d="M53.158,89.6l6.286-3.629,4.521,2.61-6.286,3.629Z" transform="translate(-10.057 -36.294)" fill="#9b8790"/>
          <path id="Path_131" data-name="Path 131" d="M56.538,91.554l6.286-3.629,4.52,2.61-6.286,3.629Z" transform="translate(-6.867 -34.452)" fill="#9b8790"/>
          <path id="Path_132" data-name="Path 132" d="M57.2,87.267l6.286-3.629,4.521,2.61-6.286,3.629Z" transform="translate(-6.241 -38.497)" fill="#9b8790"/>
          <path id="Path_133" data-name="Path 133" d="M60.583,89.219l6.286-3.629,4.52,2.61L65.1,91.829Z" transform="translate(-3.051 -36.656)" fill="#9b8790"/>
          <path id="Path_134" data-name="Path 134" d="M61.277,84.914l6.286-3.629,4.521,2.61L65.8,87.525Z" transform="translate(-2.396 -40.717)" fill="#9b8790"/>
          <path id="Path_135" data-name="Path 135" d="M64.658,86.867l6.286-3.629,4.52,2.61-6.286,3.629Z" transform="translate(0.795 -38.876)" fill="#9b8790"/>
          <path id="Path_136" data-name="Path 136" d="M65.321,82.58l6.286-3.629,4.521,2.61-6.286,3.629Z" transform="translate(1.421 -42.921)" fill="#9b8790"/>
          <path id="Path_137" data-name="Path 137" d="M68.7,84.531,74.988,80.9l4.52,2.61-6.286,3.629Z" transform="translate(4.611 -41.079)" fill="#9b8790"/>
          <path id="Path_138" data-name="Path 138" d="M69.407,80.22l6.286-3.629,4.521,2.61L73.928,82.83Z" transform="translate(5.276 -45.147)" fill="#9b8790"/>
          <path id="Path_139" data-name="Path 139" d="M72.788,82.172l6.286-3.629,4.52,2.61-6.286,3.629Z" transform="translate(8.466 -43.305)" fill="#9b8790"/>
          <path id="Path_140" data-name="Path 140" d="M73.465,77.878l6.286-3.629,4.521,2.61-6.286,3.629Z" transform="translate(9.106 -47.358)" fill="#9b8790"/>
          <path id="Path_141" data-name="Path 141" d="M76.846,79.83,83.132,76.2l4.52,2.61-6.286,3.629Z" transform="translate(12.296 -45.516)" fill="#9b8790"/>
          <path id="Path_142" data-name="Path 142" d="M57.442,94.936l6.286-3.629,4.52,2.61-6.286,3.629Z" transform="translate(-6.015 -31.261)" fill="#9b8790"/>
          <path id="Path_143" data-name="Path 143" d="M61.528,92.578l6.286-3.629,4.52,2.61-6.286,3.629Z" transform="translate(-2.159 -33.487)" fill="#9b8790"/>
          <path id="Path_144" data-name="Path 144" d="M65.572,90.242l6.286-3.629,4.521,2.61-6.286,3.629Z" transform="translate(1.657 -35.69)" fill="#9b8790"/>
          <path id="Path_145" data-name="Path 145" d="M69.647,87.89l6.286-3.629,4.521,2.61L74.167,90.5Z" transform="translate(5.502 -37.91)" fill="#9b8790"/>
          <path id="Path_146" data-name="Path 146" d="M73.691,85.555l6.286-3.629,4.521,2.61-6.286,3.629Z" transform="translate(9.319 -40.113)" fill="#9b8790"/>
          <path id="Path_147" data-name="Path 147" d="M77.777,83.2l6.286-3.629,4.521,2.61L82.3,85.806Z" transform="translate(13.174 -42.339)" fill="#9b8790"/>
          <path id="Path_148" data-name="Path 148" d="M81.835,80.853l6.286-3.629,4.52,2.61-6.286,3.629Z" transform="translate(17.003 -44.55)" fill="#9b8790"/>
          <path id="Path_149" data-name="Path 149" d="M77.551,75.519l6.286-3.629,4.52,2.61-6.286,3.629Z" transform="translate(12.961 -49.584)" fill="#9b8790"/>
          <path id="Path_150" data-name="Path 150" d="M80.932,77.471l6.286-3.629,4.521,2.61L85.453,80.08Z" transform="translate(16.151 -47.742)" fill="#9b8790"/>
          <path id="Path_151" data-name="Path 151" d="M81.6,73.184l6.286-3.629,4.521,2.61-6.286,3.629Z" transform="translate(16.777 -51.787)" fill="#9b8790"/>
          <path id="Path_152" data-name="Path 152" d="M84.976,75.136l6.286-3.629,4.52,2.61L89.5,77.745Z" transform="translate(19.967 -49.945)" fill="#9b8790"/>
          <path id="Path_153" data-name="Path 153" d="M65.454,74.7l6.286-3.629,4.52,2.61-6.286,3.629Z" transform="translate(1.546 -50.36)" fill="#9b8790"/>
          <path id="Path_154" data-name="Path 154" d="M68.834,76.647l6.286-3.629,4.521,2.61-6.286,3.629Z" transform="translate(4.736 -48.518)" fill="#9b8790"/>
          <path id="Path_155" data-name="Path 155" d="M69.591,72.307l6.286-3.629,4.52,2.61-6.286,3.629Z" transform="translate(5.45 -52.614)" fill="#9b8790"/>
          <path id="Path_156" data-name="Path 156" d="M72.972,74.259l6.286-3.629,4.521,2.61-6.286,3.629Z" transform="translate(8.64 -50.772)" fill="#9b8790"/>
          <path id="Path_157" data-name="Path 157" d="M73.635,69.972l6.286-3.629,4.521,2.61-6.286,3.629Z" transform="translate(9.266 -54.818)" fill="#9b8790"/>
          <path id="Path_158" data-name="Path 158" d="M77.016,71.924,83.3,68.295l4.521,2.61-6.286,3.629Z" transform="translate(12.456 -52.976)" fill="#9b8790"/>
          <path id="Path_159" data-name="Path 159" d="M77.721,67.613l6.286-3.629,4.521,2.61-6.286,3.629Z" transform="translate(13.122 -57.043)" fill="#9b8790"/>
          <path id="Path_160" data-name="Path 160" d="M81.1,69.565l6.286-3.629,4.521,2.61-6.286,3.629Z" transform="translate(16.312 -55.202)" fill="#9b8790"/>
          <path id="Path_161" data-name="Path 161" d="M57.978,98.531,64.264,94.9l4.521,2.61L62.5,101.141Z" transform="translate(-5.509 -27.869)" fill="#9b8790"/>
          <path id="Path_162" data-name="Path 162" d="M62.064,96.172l6.286-3.629,4.521,2.61-6.286,3.629Z" transform="translate(-1.653 -30.095)" fill="#9b8790"/>
          <path id="Path_163" data-name="Path 163" d="M83.261,83.933,89.547,80.3l4.52,2.61-6.286,3.629Z" transform="translate(18.349 -41.643)" fill="#9b8790"/>
          <path id="Path_164" data-name="Path 164" d="M87.305,81.6l6.286-3.629,4.521,2.61-6.286,3.629Z" transform="translate(22.165 -43.846)" fill="#9b8790"/>
          <path id="Path_165" data-name="Path 165" d="M91.391,79.24l6.286-3.629,4.52,2.61L95.912,81.85Z" transform="translate(26.02 -46.072)" fill="#9b8790"/>
          <path id="Path_166" data-name="Path 166" d="M95.392,76.512l4.795-2.769,4.521,2.61-4.795,2.768Z" transform="translate(29.796 -47.834)" fill="#9b8790"/>
          <path id="Path_167" data-name="Path 167" d="M66.15,100.946,97.884,82.624l4.52,2.61L70.671,103.556Z" transform="translate(2.203 -39.454)" fill="#9b8790"/>
          <path id="Path_168" data-name="Path 168" d="M43.067,100.678l-8.94-5.161V92.638l8.94,5.162Z" transform="translate(-28.015 -30.005)" fill="#232e3a"/>
          <path id="Path_169" data-name="Path 169" d="M48.389,103.755l-8.94-5.161V95.715l8.94,5.162Z" transform="translate(-22.993 -27.101)" fill="#232e3a"/>
        </g>
      </g>
    </g>
  </g>
</svg>
