<svg xmlns="http://www.w3.org/2000/svg" version="1.1" xmlns:xlink="http://www.w3.org/1999/xlink" xmlns:svgjs="http://svgjs.com/svgjs" width="512" height="512" x="0" y="0" viewBox="0 0 496 496" style="enable-background:new 0 0 512 512" xml:space="preserve" class=""><g><path d="M456 112h-8V0H48v112h-8c-22.055 0-40 17.945-40 40v256c0 22.055 17.945 40 40 40h104v32h-32v16h272v-16h-32v-32h104c22.055 0 40-17.945 40-40V152c0-22.055-17.945-40-40-40zM64 80h368v256H64zm368-64v48H64V16zM40 128h8v224h400V128h8c13.23 0 24 10.77 24 24v216H16V152c0-13.23 10.77-24 24-24zm296 352H160v-32h176zm120-48H40c-13.23 0-24-10.77-24-24v-24h464v24c0 13.23-10.77 24-24 24zm0 0" fill="#0c53af" data-original="#000000" class=""></path><path d="M48 400h16v16H48zM80 400h16v16H80zM112 400h16v16h-16zM80 32h16v16H80zM112 32h16v16h-16zM144 32h16v16h-16zM210.992 193.672 184 185.969v-2.13c9.969-7.51 16-19.327 16-31.831v-14.336c0-21.504-16.008-39.727-36.45-41.504-11.198-.969-22.343 2.8-30.573 10.352C124.727 114.07 120 124.824 120 136v16c0 12.504 6.031 24.328 16 31.832v2.129l-26.992 7.71C91.93 198.56 80 214.376 80 232.138V256h160v-23.863c0-17.762-11.93-33.578-29.008-38.465zM224 240H96v-7.863c0-10.664 7.16-20.153 17.406-23.082L152 198.03v-23.07l-3.977-2.313C140.496 168.266 136 160.543 136 152v-16c0-6.703 2.84-13.16 7.793-17.695 5.008-4.602 11.52-6.825 18.383-6.207C174.406 113.16 184 124.383 184 137.664V152c0 8.543-4.496 16.266-12.023 20.648L168 174.961v23.07l38.594 11.024C216.84 211.992 224 221.48 224 232.137zM80 272h160v16H80zM80 304h160v16H80zM256 320h160V192H256zm16-112h128v96H272zM256 96h160v16H256zM256 128h160v16H256zM256 160h112v16H256zm0 0" fill="#0c53af" data-original="#000000" class=""></path></g></svg>